<?xml version="1.0" standalone="no"?>
<!DOCTYPE svg PUBLIC "-//W3C//DTD SVG 20010904//EN"
 "http://www.w3.org/TR/2001/REC-SVG-20010904/DTD/svg10.dtd">
<svg version="1.0" xmlns="http://www.w3.org/2000/svg"
 width="274.000000pt" height="261.000000pt" viewBox="0 0 274.000000 261.000000"
 preserveAspectRatio="xMidYMid meet">

<g transform="translate(0.000000,261.000000) scale(0.100000,-0.100000)"
fill="#000000" stroke="none">
<path d="M220 2530 c-42 -42 -17 -90 48 -90 21 0 39 -10 59 -32 17 -18 144
-147 285 -285 223 -222 289 -280 276 -243 -1 5 -130 137 -285 293 -219 219
-283 288 -283 308 0 60 -59 90 -100 49z"/>
<path d="M2400 2530 c-11 -11 -20 -27 -20 -37 0 -9 -80 -97 -178 -197 -267
-272 -397 -406 -400 -416 -2 -4 1 -11 6 -14 12 -7 67 44 199 189 159 172 366
382 390 394 12 6 32 11 45 11 26 0 48 17 48 37 0 18 -37 53 -55 53 -8 0 -24
-9 -35 -20z"/>
<path d="M1050 2508 c-26 -14 -53 -37 -65 -58 -19 -33 -20 -49 -17 -334 3
-238 1 -301 -10 -307 -7 -5 -159 -9 -338 -9 -367 0 -374 -1 -417 -76 -20 -35
-23 -53 -23 -166 l0 -128 28 0 c21 0 30 8 42 33 46 98 177 101 226 5 l15 -28
269 0 270 0 0 23 c0 12 11 48 24 79 13 32 21 60 18 63 -9 8 -352 6 -352 -3 0
-4 -14 -16 -31 -26 -54 -32 -106 3 -79 54 6 11 8 25 5 30 -8 14 -38 13 -53 -2
-18 -18 -27 -1 -16 30 8 22 16 28 48 30 30 3 48 -4 89 -32 l52 -36 187 0 c124
0 189 4 194 11 3 6 9 77 11 157 l5 147 -26 30 c-31 36 -32 54 -6 88 12 16 20
40 20 65 0 50 8 72 26 72 10 0 14 -14 14 -49 0 -31 6 -57 18 -72 30 -39 32
-56 11 -82 -17 -22 -19 -42 -19 -172 l0 -146 23 7 c12 3 36 14 52 23 17 9 41
18 55 21 l25 5 3 233 c2 208 1 232 -14 232 -9 0 -31 15 -50 34 -28 28 -34 41
-34 78 0 53 27 100 69 118 26 10 31 18 31 46 l0 34 -118 0 c-102 0 -124 -3
-162 -22z"/>
<path d="M1380 2497 c0 -29 5 -37 31 -47 35 -15 69 -74 69 -119 0 -33 -48 -96
-81 -106 -19 -6 -19 -16 -17 -238 l3 -232 25 -5 c14 -3 39 -12 55 -21 17 -9
40 -20 53 -23 l22 -7 0 243 c0 236 4 268 31 268 4 0 9 -120 11 -267 2 -148 7
-274 11 -280 6 -10 63 -13 227 -13 l219 0 15 29 c20 37 68 58 102 43 35 -17
58 -70 45 -104 -21 -56 -112 -73 -144 -27 -13 17 -28 18 -212 18 -110 0 -202
-2 -206 -5 -4 -2 4 -30 17 -61 13 -32 24 -68 24 -80 l0 -23 270 0 269 0 16 30
c33 64 126 90 177 50 14 -11 33 -36 42 -55 15 -30 22 -36 44 -33 l27 3 3 119
c3 141 -13 188 -76 223 -34 19 -60 21 -352 27 -173 3 -325 6 -337 6 l-22 0 -3
309 c-3 297 -4 311 -24 338 -42 56 -77 68 -211 72 l-123 3 0 -35z"/>
<path d="M1305 2385 c-47 -46 -17 -115 49 -115 65 0 91 79 40 119 -35 27 -59
26 -89 -4z"/>
<path d="M720 2300 c-24 -24 -25 -48 -4 -78 19 -27 64 -29 87 -4 24 26 21 68
-5 86 -30 21 -54 20 -78 -4z m59 -34 c9 -10 8 -16 -4 -26 -19 -16 -41 1 -32
24 8 20 21 20 36 2z"/>
<path d="M1894 2295 c-21 -32 -12 -68 22 -84 56 -25 102 50 56 92 -27 24 -59
21 -78 -8z m62 -26 c10 -17 -13 -36 -27 -22 -12 12 -4 33 11 33 5 0 12 -5 16
-11z"/>
<path d="M2319 2243 c-13 -16 -12 -17 4 -4 9 7 17 15 17 17 0 8 -8 3 -21 -13z"/>
<path d="M200 2210 c-46 -46 3 -96 64 -65 16 9 55 15 89 15 60 0 62 -1 114
-52 29 -28 56 -49 59 -45 8 8 -82 108 -106 119 -8 3 -40 4 -70 1 -49 -5 -58
-2 -83 21 -34 31 -41 32 -67 6z"/>
<path d="M2423 2210 c-23 -26 -129 -30 -119 -4 9 24 -69 -41 -110 -92 -52 -63
-35 -66 22 -5 l48 51 69 0 c37 0 77 -5 89 -11 51 -27 102 27 58 63 -28 23 -36
23 -57 -2z"/>
<path d="M242 2050 c-27 -25 -28 -51 -4 -78 29 -34 58 -37 87 -8 64 64 -17
147 -83 86z m68 -26 c11 -12 10 -18 -3 -32 -15 -15 -19 -15 -32 -1 -17 17 -11
49 10 49 7 0 18 -7 25 -16z"/>
<path d="M2357 2052 c-10 -10 -17 -29 -17 -41 0 -25 42 -71 65 -71 24 0 55 38
55 68 0 55 -68 83 -103 44z m68 -32 c8 -24 -1 -40 -21 -40 -17 0 -28 24 -20
45 8 22 34 18 41 -5z"/>
<path d="M477 2020 c-15 -12 -27 -31 -27 -44 0 -78 101 -91 125 -15 7 20 -17
69 -34 69 -5 0 -16 2 -23 5 -8 3 -26 -4 -41 -15z m61 -46 c2 -12 -4 -24 -12
-27 -19 -7 -40 18 -32 39 8 22 40 13 44 -12z"/>
<path d="M2124 2016 c-25 -21 -27 -27 -18 -57 21 -73 106 -77 120 -4 13 74
-46 110 -102 61z m73 -32 c3 -8 -2 -23 -11 -32 -15 -15 -17 -15 -32 0 -21 21
-11 48 16 48 11 0 23 -7 27 -16z"/>
<path d="M1290 1671 c-94 -31 -160 -92 -179 -167 -37 -146 31 -269 172 -313
62 -19 70 -19 124 -5 150 39 226 156 195 301 -15 71 -52 119 -121 157 -56 30
-144 43 -191 27z m172 -84 c141 -107 108 -298 -60 -348 -35 -10 -53 -10 -90 0
-171 45 -206 240 -64 348 39 29 51 33 107 33 56 0 68 -4 107 -33z"/>
<path d="M1325 1547 c-14 -11 -17 -22 -12 -45 l7 -32 -45 0 -45 0 0 -40 0 -40
45 0 45 0 0 -45 c0 -45 0 -45 35 -45 35 0 35 0 35 45 l0 45 45 0 45 0 0 40 0
40 -44 0 -45 0 6 35 c5 31 3 36 -21 45 -33 12 -29 13 -51 -3z"/>
<path d="M2104 1656 c-9 -22 4 -36 32 -36 21 0 25 4 22 23 -4 26 -45 37 -54
13z"/>
<path d="M334 1478 c-21 -10 -44 -47 -44 -72 0 -19 54 -66 76 -66 28 0 64 41
64 72 0 50 -54 87 -96 66z"/>
<path d="M2291 1454 c-12 -15 -21 -33 -21 -41 0 -22 56 -73 80 -73 28 0 70 43
70 73 0 63 -89 91 -129 41z"/>
<path d="M2448 1350 c-23 -41 -34 -51 -68 -60 -68 -18 -136 16 -155 78 l-6 22
-271 -2 -270 -3 -17 -55 c-10 -30 -23 -65 -30 -77 l-12 -23 184 0 c168 0 185
2 201 19 38 42 91 29 121 -30 14 -27 14 -32 -2 -59 -33 -56 -104 -59 -139 -5
l-16 25 -193 0 -193 0 1 -389 c1 -214 -1 -392 -5 -396 -4 -4 -14 -5 -23 -2
-13 6 -15 50 -15 354 0 191 -3 364 -6 384 l-6 37 -34 -23 c-19 -13 -52 -26
-74 -30 l-40 -7 0 -341 0 -342 30 -20 c43 -28 61 -60 62 -106 0 -46 -22 -84
-63 -107 -24 -14 -29 -23 -27 -47 l3 -30 100 -3 c55 -2 116 1 135 7 43 13 93
64 109 110 7 23 11 157 11 412 l0 379 330 0 c359 0 358 0 412 57 41 43 48 74
48 204 l0 119 -27 0 c-23 0 -33 -9 -55 -50z"/>
<path d="M181 1273 c0 -139 11 -175 62 -217 l39 -31 339 -3 339 -3 0 -372 c0
-205 5 -389 9 -411 12 -49 64 -103 113 -117 21 -5 84 -8 140 -7 l103 3 3 30
c2 24 -3 33 -27 47 -41 23 -63 61 -63 107 1 46 19 78 62 106 l30 20 0 342 0
341 -40 7 c-22 4 -55 17 -74 30 l-34 23 -5 -37 c-4 -20 -7 -151 -8 -291 -2
-344 -8 -450 -25 -450 -12 0 -14 68 -14 395 l0 395 -211 0 -212 0 -38 -35
c-53 -48 -101 -49 -130 -2 -35 56 -4 137 52 137 31 0 89 -28 89 -42 0 -4 92
-8 205 -8 l206 0 -12 23 c-7 12 -20 47 -30 77 l-17 55 -276 3 c-249 2 -276 1
-276 -14 0 -27 -63 -82 -103 -89 -50 -10 -106 20 -130 68 -14 27 -25 37 -43
37 l-24 0 1 -117z"/>
<path d="M575 1214 c-25 -25 -15 -49 20 -49 24 0 31 5 33 24 6 37 -26 52 -53
25z"/>
<path d="M2037 1200 c-3 -10 1 -24 8 -30 19 -16 45 -1 45 26 0 19 -5 24 -24
24 -15 0 -26 -7 -29 -20z"/>
<path d="M840 931 c-14 -14 -90 -93 -170 -176 -80 -83 -186 -188 -237 -233
-50 -46 -97 -96 -104 -112 -13 -28 -14 -28 -41 -12 -26 15 -31 15 -56 2 -55
-31 -28 -110 38 -110 32 0 50 22 50 61 0 16 56 77 198 214 235 229 377 381
359 387 -6 2 -23 -7 -37 -21z m-560 -566 c15 -18 5 -35 -20 -35 -23 0 -32 13
-24 34 8 20 28 21 44 1z"/>
<path d="M1804 949 c-5 -9 89 -107 279 -295 230 -226 287 -287 287 -308 0 -31
40 -61 69 -51 77 24 60 124 -19 113 -28 -4 -42 6 -148 106 -64 60 -169 162
-232 227 -171 173 -227 222 -236 208z m651 -595 c0 -12 -8 -20 -22 -22 -17 -3
-23 2 -23 16 0 20 16 33 35 28 6 -2 10 -11 10 -22z"/>
<path d="M477 892 c-21 -23 -22 -56 -1 -76 22 -22 77 -20 99 4 17 18 17 21 -2
52 -23 40 -69 50 -96 20z m71 -40 c4 -30 -26 -42 -44 -17 -10 14 -11 22 -2 32
16 20 42 12 46 -15z"/>
<path d="M2126 894 c-9 -8 -16 -22 -16 -30 0 -11 -6 -13 -22 -8 -21 6 21 -46
145 -181 l47 -52 92 -5 c51 -3 98 -4 105 -1 23 9 15 52 -12 65 -33 15 -43 3
-20 -22 15 -16 15 -20 3 -20 -8 0 -18 3 -21 7 -4 3 -33 5 -65 4 -52 -2 -62 1
-99 31 -42 34 -98 96 -92 102 2 2 14 9 27 15 30 16 32 85 3 101 -28 14 -57 12
-75 -6z m74 -43 c0 -15 -29 -33 -45 -27 -18 7 -20 43 -2 49 14 5 47 -10 47
-22z"/>
<path d="M252 844 c-52 -36 1 -127 61 -105 19 7 28 20 33 46 11 63 -42 96 -94
59z m65 -30 c3 -8 -2 -23 -11 -32 -15 -15 -17 -15 -33 0 -13 14 -14 20 -3 32
16 20 39 20 47 0z"/>
<path d="M2346 841 c-15 -17 -17 -27 -10 -53 12 -40 56 -68 81 -52 29 18 44
66 30 95 -17 33 -75 39 -101 10z m74 -36 c0 -9 -7 -18 -16 -22 -18 -7 -39 11
-30 26 11 17 46 13 46 -4z"/>
<path d="M466 721 l-71 -69 -82 -4 c-63 -4 -80 -2 -73 7 10 12 4 25 -11 25 -4
0 -15 -7 -23 -16 -12 -12 -13 -20 -6 -35 10 -18 18 -19 106 -13 l95 7 61 63
c114 119 117 143 4 35z"/>
<path d="M728 609 c-18 -10 -25 -64 -10 -85 32 -48 95 -30 100 28 3 32 -1 39
-27 52 -35 19 -40 19 -63 5z m62 -38 c0 -22 -29 -36 -43 -22 -15 15 0 41 23
41 13 0 20 -7 20 -19z"/>
<path d="M1886 598 c-21 -30 -20 -71 2 -91 25 -22 44 -21 76 4 28 22 36 75 14
97 -21 21 -75 15 -92 -10z m67 -22 c6 -15 -11 -36 -29 -36 -14 0 -23 20 -16
38 6 16 39 15 45 -2z"/>
<path d="M1300 350 c-44 -44 -8 -120 58 -120 58 0 83 76 39 118 -29 27 -71 28
-97 2z"/>
</g>
</svg>
